<?xml version="1.0" encoding="utf-8"?>
<!-- Svg Vector Icons : http://www.onlinewebfonts.com/icon -->
<!DOCTYPE svg PUBLIC "-//W3C//DTD SVG 1.1//EN" "http://www.w3.org/Graphics/SVG/1.1/DTD/svg11.dtd">
<svg version="1.1" xmlns="http://www.w3.org/2000/svg" xmlns:xlink="http://www.w3.org/1999/xlink" x="0px" y="0px" viewBox="0 0 1000 1000" enable-background="new 0 0 1000 1000" xml:space="preserve">
<metadata> Svg Vector Icons : http://www.onlinewebfonts.com/icon </metadata>
<g><g transform="translate(0.000000,511.000000) scale(0.100000,-0.100000)"><path fill="white" d="M2299.5,5004.7c-794.7-116.3-1420.4-570.8-1747.5-1268.9C-32,2486.6,668.3,1015.6,2020.7,660c324.9-87.8,777.2-81.2,1124.1,13.2c355.7,94.4,783.8,355.7,1031.8,627.9c406.1,443.4,623.5,1049.4,584,1633.4c-35.1,542.3-245.9,1020.9-625.7,1409.5c-406.1,419.3-922.1,645.4-1506,663C2483.9,5011.3,2336.8,5009.1,2299.5,5004.7z M2942.7,4455.8c239.3-50.5,557.6-217.3,746.4-393c375.4-346.9,555.4-750.8,557.6-1251.4c2.2-296.4-39.5-476.4-169-746.4c-166.9-346.9-445.7-625.7-790.3-790.4c-259.1-125.1-399.6-153.7-746.4-151.5c-274.4,0-327.1,6.6-483,59.3c-551,184.4-944,577.4-1121.9,1124.1c-83.4,256.9-96.6,608.1-32.9,878.2C1124.9,4106.8,2000.9,4653.4,2942.7,4455.8z"/><path fill="red" d="M2451,3625.9c-133.9-59.3-162.5-125.1-162.5-377.6V3020h-213c-241.5,0-329.3-32.9-390.8-151.5c-65.9-129.5-22-276.6,105.4-353.4c57.1-35.1,109.8-43.9,285.4-43.9h213v-228.3c0-215.1,4.4-232.7,57.1-296.4c81.2-96.6,206.4-127.3,309.6-74.6c140.5,68.1,171.2,133.9,177.8,379.8l8.8,215.1l230.5,8.8l230.5,6.6l74.6,81.2c61.5,68,74.6,98.8,74.6,182.2c0,83.4-13.2,114.2-74.6,182.2l-74.6,81.2l-232.7,6.6l-232.7,8.8v188.8c0,138.3-11,210.7-39.5,265.6C2727.6,3621.6,2578.3,3683,2451,3625.9z"/><path fill="red" d="M7131.6,4995.9c-324.9-52.7-623.5-166.9-897.9-342.5c-204.2-131.7-507.1-436.9-641.1-643.3c-724.5-1121.8-303-2619.1,895.7-3194.3c702.5-338.1,1503.8-285.4,2160.3,138.3c794.7,513.7,1170.1,1468.7,939.6,2388.6c-199.8,792.5-829.9,1416-1624.6,1611.4C7759.5,5004.7,7324.8,5026.6,7131.6,4995.9z M7856,4447c454.5-114.2,845.2-414.9,1071.4-821.1c248.1-441.3,278.8-1007.7,85.6-1473.1c-116.4-274.4-357.9-577.4-594.9-739.9c-158.1-107.6-443.5-230.5-623.5-267.8c-893.5-184.4-1771.7,366.6-1993.4,1247c-54.9,219.5-59.3,595-8.8,801.3c151.5,610.3,623.5,1091.1,1236,1255.8C7237,4506.3,7627.7,4504.1,7856,4447z"/><path fill="white" d="M6710.1,2998.1c-90-35.1-162.5-149.3-162.5-254.7c0-79,13.2-112,74.6-180l74.6-81.2l715.7-6.6c792.5-6.6,807.9-4.4,891.3,133.9c79,129.5,39.5,285.4-94.4,366.6c-65.9,41.7-114.2,43.9-761.8,41.7C7067.9,3017.8,6736.4,3009.1,6710.1,2998.1z"/><path fill="red" d="M2290.7-385.1C1109.6-523.4,235.8-1614.5,358.7-2800c26.3-274.4,87.8-493.9,206.4-737.6c581.8-1200.9,2074.7-1620.2,3196.5-895.7c206.4,133.9,511.5,436.9,643.2,641.1c489.6,757.4,478.6,1697-26.3,2463.2c-107.6,164.7-399.6,456.7-573,573C3507-556.3,3160.1-429,2793.4-382.9C2584.9-358.7,2523.4-358.7,2290.7-385.1z M3067.9-962.5c465.4-158.1,803.5-452.2,1009.9-880.3c129.5-270,171.2-450.1,169-746.4c-4.4-746.4-458.8-1365.5-1189.9-1613.6c-219.5-74.7-654.2-87.8-900.1-24.1c-496.2,122.9-908.9,456.6-1130.6,913.3c-103.2,213-142.7,379.8-158.1,647.6c-26.3,483,140.5,926.5,474.2,1266.8c234.9,237.1,494,386.4,814.5,469.8C2407.1-865.8,2828.6-881.2,3067.9-962.5z"/><path fill="white" d="M2005.3-1893.3c-109.8-54.9-162.5-138.3-162.5-254.7c0-217.3,215.1-357.8,410.5-265.6c217.3,103.2,221.7,421.5,6.6,522.5C2161.2-1842.8,2099.7-1845,2005.3-1893.3z"/><path fill="orange" d="M2824.2-2049.2c-46.1-35.1-278.8-259.1-515.9-498.4c-472-478.6-504.9-526.9-454.4-680.6c50.5-153.7,241.5-230.5,386.4-153.7c32.9,17.6,274.4,248.1,535.7,511.5c404,408.3,476.4,491.8,489.6,562C3313.8-2055.8,3037.1-1891.1,2824.2-2049.2z"/><path fill="white" d="M2804.4-2977.8c-63.7-50.5-120.7-162.5-120.7-239.3c0-210.8,267.8-353.5,452.3-241.5c70.2,43.9,140.5,162.5,140.5,241.5c0,76.8-57.1,188.8-120.8,239.3C3070.1-2909.8,2890-2909.8,2804.4-2977.8z"/><path fill="white" d="M7059.1-393.8c-713.5-129.5-1334.8-614.7-1635.6-1279.9c-127.3-283.2-177.8-526.9-177.8-882.6c0-353.5,28.5-522.5,138.3-805.7c248.1-645.4,775-1128.4,1459.9-1337c184.4-57.1,223.9-61.5,592.8-61.5c458.8,0,597.1,28.6,948.4,195.4c276.6,129.5,441.3,252.5,665.2,487.4C9900-3182,9847.3-1783.5,8934-940.5C8435.6-481.6,7719.9-273.1,7059.1-393.8z M7676-887.8c377.6-54.9,698.1-217.4,968.2-491.8c338.1-344.7,491.8-720.1,494-1200.9c0-267.8-54.9-491.8-188.8-766.2c-87.8-175.6-133.9-237.1-303-406.2c-285.4-281-518.1-410.5-891.3-485.2c-215.2-41.7-522.5-32.9-735.5,24.1c-300.8,79-643.2,289.8-840.8,518.1c-289.8,331.5-421.5,687.2-423.7,1121.9c0,496.2,175.6,902.3,537.9,1240.4C6679.3-973.4,7171.1-815.3,7676-887.8z"/><path fill="orange" d="M6835.2-2040.4c-79-68.1-120.7-184.4-101-276.6c8.8-41.7,74.6-131.7,166.8-226.1l149.3-158.1l-142.7-142.7c-206.4-204.2-232.7-335.9-101-480.8c63.7-72.4,177.8-103.2,276.6-79c32.9,8.8,127.3,79,212.9,160.3l153.7,144.9l136.1-131.7c74.6-72.4,158.1-144.9,184.4-158.1c136.1-70.2,324.9,13.2,375.4,162.5c39.5,122.9-6.6,232.7-171.3,395.2l-129.5,129.5l131.7,136.1c162.5,171.2,206.4,263.4,173.5,379.8c-28.5,105.4-103.2,175.6-204.2,193.2c-127.3,19.7-188.8-8.8-349.1-164.6l-151.5-144.9l-136.1,133.9c-162.5,158-204.2,182.2-320.5,182.2C6927.4-1985.5,6883.5-2000.9,6835.2-2040.4z"/></g></g>
</svg>